<svg width="48" height="49" viewBox="0 0 48 49" fill="none" xmlns="http://www.w3.org/2000/svg">
<path d="M22.6606 1.96123C23.5182 1.606 24.4818 1.606 25.3394 1.96122L39.2485 7.72256C40.1061 8.07779 40.7874 8.75915 41.1427 9.61675L46.904 23.5258C47.2592 24.3834 47.2592 25.347 46.904 26.2046L41.1427 40.1137C40.7874 40.9713 40.1061 41.6527 39.2485 42.0079L25.3394 47.7692C24.4818 48.1245 23.5182 48.1245 22.6606 47.7692L8.75152 42.0079C7.89392 41.6527 7.21256 40.9713 6.85733 40.1137L1.09599 26.2046C0.740763 25.347 0.740762 24.3834 1.09599 23.5258L6.85733 9.61675C7.21255 8.75915 7.89392 8.07779 8.75151 7.72256L22.6606 1.96123Z" stroke="#193B2C"/>
<path d="M15.3845 20.7913C15.3845 20.6674 15.4851 20.5668 15.609 20.5668H25.3438C25.4677 20.5668 25.5683 20.6674 25.5683 20.7913C25.5683 20.9152 25.4677 21.0158 25.3438 21.0158H15.609C15.4847 21.0158 15.3845 20.9152 15.3845 20.7913ZM20.4764 18.9227H25.3438C25.4677 18.9227 25.5683 18.8221 25.5683 18.6982C25.5683 18.5743 25.4677 18.4737 25.3438 18.4737H20.4764C20.3525 18.4737 20.2519 18.5743 20.2519 18.6982C20.2519 18.8221 20.3525 18.9227 20.4764 18.9227ZM15.609 23.1085H25.3438C25.4677 23.1085 25.5683 23.0079 25.5683 22.884C25.5683 22.7601 25.4677 22.6595 25.3438 22.6595H15.609C15.4851 22.6595 15.3845 22.7601 15.3845 22.884C15.3845 23.0079 15.4847 23.1085 15.609 23.1085ZM22.5646 24.9771C22.5646 24.8532 22.464 24.7527 22.3401 24.7527H15.609C15.4851 24.7527 15.3845 24.8532 15.3845 24.9771C15.3845 25.1011 15.4851 25.2016 15.609 25.2016H22.3401C22.464 25.2016 22.5646 25.1011 22.5646 24.9771ZM15.609 27.2943H21.5194C21.6433 27.2943 21.7439 27.1938 21.7439 27.0698C21.7439 26.9459 21.6433 26.8454 21.5194 26.8454H15.609C15.4851 26.8454 15.3845 26.9459 15.3845 27.0698C15.3845 27.1938 15.4847 27.2943 15.609 27.2943ZM21.5804 28.9385H15.609C15.4851 28.9385 15.3845 29.0391 15.3845 29.163C15.3845 29.2869 15.4851 29.3875 15.609 29.3875H21.5804C21.7044 29.3875 21.8049 29.2869 21.8049 29.163C21.8049 29.0391 21.7044 28.9385 21.5804 28.9385ZM26.8703 24.5385C28.7569 24.5385 30.292 26.0736 30.292 27.9597C30.292 29.8459 28.7569 31.3809 26.8703 31.3809C24.9837 31.3809 23.4491 29.8459 23.4491 27.9597C23.4491 26.0736 24.9837 24.5385 26.8703 24.5385ZM26.8703 24.9875C25.2316 24.9875 23.8981 26.3209 23.8981 27.9597C23.8981 29.5985 25.2316 30.932 26.8703 30.932C28.5096 30.932 29.843 29.5985 29.843 27.9597C29.843 26.3209 28.5091 24.9875 26.8703 24.9875ZM35 34.9526C35 35.2574 34.8819 35.5434 34.6678 35.7576C34.4536 35.9718 34.1676 36.0898 33.8627 36.0898C33.5579 36.0898 33.2719 35.9718 33.0577 35.7576L30.9964 33.6963C30.8586 33.5585 30.7827 33.3749 30.7827 33.1791C30.7827 33.1266 30.7886 33.0749 30.7993 33.0247L29.4183 31.6436C28.9801 31.9476 28.4849 32.1756 27.9524 32.3081V32.5725C27.9524 33.2334 27.4149 33.7709 26.754 33.7709H14.1983C13.5374 33.7709 13 33.2334 13 32.5725V17.6359C13 17.5762 13.0238 17.5192 13.0656 17.4769L16.3871 14.1554C16.4293 14.1132 16.4863 14.0898 16.546 14.0898H26.7545C27.4154 14.0898 27.9528 14.6273 27.9528 15.2882V23.6114C29.9023 24.0967 31.3516 25.8621 31.3516 27.9597C31.3516 28.9057 31.0566 29.7839 30.5547 30.5077L31.9357 31.8887C31.986 31.878 32.0376 31.8721 32.0902 31.8721C32.2859 31.8721 32.4696 31.948 32.6074 32.0858L34.6687 34.1471C34.8819 34.3617 35 34.6477 35 34.9526ZM26.8703 23.9279C24.647 23.9279 22.8385 25.7368 22.8385 27.9602C22.8385 30.1835 24.6474 31.9925 26.8703 31.9925C29.0932 31.9925 30.9026 30.1835 30.9026 27.9602C30.9026 25.7368 29.0937 23.9279 26.8703 23.9279ZM13.7664 17.4114H15.5722C15.9853 17.4114 16.3216 17.0751 16.3216 16.662V14.8563L13.7664 17.4114ZM27.5038 32.3961C27.2969 32.4257 27.0854 32.441 26.8703 32.441C24.3996 32.441 22.3895 30.4309 22.3895 27.9597C22.3895 25.4885 24.3996 23.4785 26.8703 23.4785C27.0854 23.4785 27.2969 23.4942 27.5038 23.5234V15.2882C27.5038 14.8751 27.1676 14.5388 26.7545 14.5388H16.7705V16.662C16.7705 17.3225 16.2327 17.8604 15.5722 17.8604H13.449V32.5734C13.449 32.9865 13.7853 33.3228 14.1983 33.3228H26.7545C27.1676 33.3228 27.5038 32.9865 27.5038 32.5734V32.3961ZM29.777 31.3675L31.0342 32.6246L31.5352 32.1236L30.2781 30.8664C30.1241 31.0465 29.9566 31.2139 29.777 31.3675ZM34.551 34.9526C34.551 34.7676 34.4796 34.5947 34.3503 34.465L32.2891 32.4037C32.2361 32.3507 32.1651 32.3216 32.0893 32.3216C32.0134 32.3216 31.9429 32.3507 31.8895 32.4037L31.3139 32.9798C31.2609 33.0327 31.2317 33.1037 31.2317 33.1796C31.2317 33.255 31.2609 33.3259 31.3139 33.3789L33.3751 35.4402C33.5044 35.5695 33.6778 35.6409 33.8627 35.6409C34.0477 35.6409 34.2206 35.5695 34.3503 35.4402C34.4796 35.3104 34.551 35.1376 34.551 34.9526ZM26.8703 26.6424C27.7593 26.6424 28.5868 26.9971 29.2005 27.6409C29.3711 27.8201 29.3711 28.1003 29.2005 28.2794C28.5872 28.9232 27.7598 29.2779 26.8703 29.2779C25.9809 29.2779 25.1539 28.9232 24.5401 28.2794C24.3695 28.1003 24.3695 27.8201 24.5401 27.6409C25.1539 26.9971 25.9813 26.6424 26.8703 26.6424ZM27.6278 27.9602C27.6278 27.5426 27.2879 27.2027 26.8703 27.2027C26.4528 27.2027 26.1129 27.5426 26.1129 27.9602C26.1129 28.3777 26.4528 28.7176 26.8703 28.7176C27.2879 28.7176 27.6278 28.3777 27.6278 27.9602ZM24.8652 27.9696C25.1548 28.2736 25.5005 28.5025 25.8794 28.6471C25.7438 28.4518 25.6639 28.2152 25.6639 27.9602C25.6639 27.7051 25.7438 27.4681 25.8794 27.2732C25.5005 27.4183 25.1548 27.6468 24.8652 27.9507C24.8602 27.9561 24.8602 27.9642 24.8652 27.9696ZM28.875 27.9507C28.5854 27.6468 28.2397 27.4178 27.8608 27.2732C27.9964 27.4685 28.0763 27.7051 28.0763 27.9602C28.0763 28.2152 27.9964 28.4523 27.8608 28.6471C28.2397 28.5021 28.5854 28.2736 28.875 27.9696C28.8804 27.9642 28.8804 27.9561 28.875 27.9507Z" fill="#193B2C"/>
</svg>
