<svg width="48" height="49" viewBox="0 0 48 49" fill="none" xmlns="http://www.w3.org/2000/svg">
<path d="M27.9768 19.4934C27.3396 18.9189 26.5869 18.4871 25.7693 18.227C24.9517 17.9669 24.0879 17.8845 23.2359 17.9853C21.9498 18.1322 20.7444 18.6865 19.7958 19.5672C18.8472 20.4479 18.2052 21.6089 17.9634 22.8806C17.7216 24.1522 17.8928 25.4679 18.452 26.6353C19.0112 27.8027 19.929 28.7607 21.0714 29.3693V32.947C21.0716 33.1364 21.1469 33.3179 21.2808 33.4519C21.4148 33.5858 21.5963 33.6611 21.7857 33.6613H22.5V34.3756C22.5002 34.5649 22.5755 34.7465 22.7094 34.8804C22.8433 35.0143 23.0249 35.0897 23.2143 35.0898H24.6429C24.8322 35.0897 25.0138 35.0143 25.1477 34.8804C25.2816 34.7465 25.357 34.5649 25.3571 34.3756V33.6613H26.0714C26.2608 33.6611 26.4424 33.5858 26.5763 33.4519C26.7102 33.3179 26.7855 33.1364 26.7857 32.947V29.3694C27.6477 28.9104 28.3861 28.2499 28.9381 27.4443C29.4901 26.6386 29.8395 25.7116 29.9564 24.742C30.0733 23.7724 29.9544 22.7889 29.6098 21.8751C29.2651 20.9613 28.7049 20.1443 27.9768 19.4934ZM26.0714 30.8041V31.5184H21.7857V30.8041H26.0714ZM24.6434 34.3756H23.2143V33.6613H24.643L24.6434 34.3756ZM21.7857 32.947V32.2327H26.0714V32.947H21.7857ZM26.272 28.8299C26.2118 28.8592 26.1611 28.9048 26.1257 28.9616C26.0902 29.0183 26.0714 29.0839 26.0714 29.1508V30.0898H24.2857V28.452L25.2525 27.4852C25.3176 27.4178 25.3536 27.3276 25.3527 27.234C25.3519 27.1403 25.3144 27.0508 25.2481 26.9846C25.1819 26.9183 25.0924 26.8808 24.9987 26.88C24.9051 26.8791 24.8149 26.9151 24.7475 26.9802L23.9286 27.7991L23.1096 26.9802C23.0423 26.9151 22.9521 26.8791 22.8584 26.88C22.7648 26.8808 22.6752 26.9183 22.609 26.9846C22.5428 27.0508 22.5052 27.1403 22.5044 27.234C22.5036 27.3276 22.5396 27.4178 22.6046 27.4852L23.5714 28.452V30.0898H21.7857V29.1508C21.7857 29.0839 21.7669 29.0183 21.7315 28.9616C21.696 28.9048 21.6453 28.8592 21.5852 28.8299C20.5426 28.3236 19.6925 27.4926 19.1627 26.4618C18.6328 25.431 18.4517 24.2561 18.6467 23.1136C18.8417 21.9711 19.4022 20.9228 20.2439 20.1261C21.0857 19.3294 22.1633 18.8273 23.3148 18.6955C23.521 18.6724 23.7284 18.6608 23.9359 18.6607C25.2524 18.6568 26.5231 19.1434 27.5004 20.0256C28.1554 20.611 28.6563 21.3488 28.9587 22.1736C29.2611 22.9985 29.3558 23.8852 29.2344 24.7553C29.113 25.6255 28.7792 26.4523 28.2626 27.1629C27.7459 27.8735 27.0623 28.4461 26.272 28.8299Z" fill="#193B2C"/>
<path d="M23.9286 17.2327C24.0233 17.2327 24.1141 17.1951 24.1811 17.1281C24.2481 17.0611 24.2857 16.9703 24.2857 16.8756V15.447C24.2857 15.3523 24.2481 15.2614 24.1811 15.1944C24.1141 15.1275 24.0233 15.0898 23.9286 15.0898C23.8339 15.0898 23.743 15.1275 23.676 15.1944C23.6091 15.2614 23.5714 15.3523 23.5714 15.447V16.8756C23.5714 16.9703 23.6091 17.0611 23.676 17.1281C23.743 17.1951 23.8339 17.2327 23.9286 17.2327Z" fill="#193B2C"/>
<path d="M18.6253 19.2202C18.6583 19.2543 18.6977 19.2815 18.7412 19.3002C18.7848 19.3189 18.8317 19.3288 18.8791 19.3292C18.9265 19.3296 18.9736 19.3206 19.0174 19.3026C19.0613 19.2846 19.1012 19.2581 19.1347 19.2246C19.1683 19.1911 19.1948 19.1512 19.2128 19.1073C19.2307 19.0634 19.2398 19.0164 19.2393 18.969C19.2389 18.9215 19.2291 18.8747 19.2104 18.8311C19.1916 18.7875 19.1644 18.7481 19.1303 18.7152L18.1201 17.705C18.0872 17.6708 18.0478 17.6436 18.0042 17.6249C17.9606 17.6062 17.9137 17.5963 17.8663 17.5959C17.8189 17.5955 17.7719 17.6046 17.728 17.6225C17.6841 17.6405 17.6442 17.667 17.6107 17.7005C17.5771 17.7341 17.5506 17.7739 17.5327 17.8178C17.5147 17.8617 17.5057 17.9087 17.5061 17.9562C17.5065 18.0036 17.5164 18.0505 17.5351 18.094C17.5538 18.1376 17.581 18.177 17.6151 18.21L18.6253 19.2202Z" fill="#193B2C"/>
<path d="M16.7857 23.6613H15.3571C15.2624 23.6613 15.1716 23.6989 15.1046 23.7659C15.0376 23.8329 15 23.9237 15 24.0184C15 24.1131 15.0376 24.204 15.1046 24.271C15.1716 24.3379 15.2624 24.3756 15.3571 24.3756H16.7857C16.8804 24.3756 16.9713 24.3379 17.0383 24.271C17.1052 24.204 17.1429 24.1131 17.1429 24.0184C17.1429 23.9237 17.1052 23.8329 17.0383 23.7659C16.9713 23.6989 16.8804 23.6613 16.7857 23.6613Z" fill="#193B2C"/>
<path d="M18.6253 28.8167L17.6151 29.8269C17.581 29.8598 17.5538 29.8992 17.5351 29.9428C17.5164 29.9864 17.5065 30.0332 17.5061 30.0807C17.5057 30.1281 17.5147 30.1751 17.5327 30.219C17.5506 30.2629 17.5771 30.3028 17.6107 30.3363C17.6442 30.3698 17.6841 30.3964 17.728 30.4143C17.7719 30.4323 17.8189 30.4413 17.8663 30.4409C17.9137 30.4405 17.9606 30.4306 18.0042 30.4119C18.0478 30.3932 18.0872 30.366 18.1201 30.3319L19.1303 29.3217C19.1954 29.2543 19.2314 29.1641 19.2306 29.0705C19.2297 28.9768 19.1922 28.8872 19.126 28.821C19.0598 28.7548 18.9702 28.7172 18.8765 28.7164C18.7829 28.7156 18.6927 28.7516 18.6253 28.8167Z" fill="#193B2C"/>
<path d="M29.737 17.705L28.7268 18.7152C28.6927 18.7481 28.6655 18.7875 28.6468 18.8311C28.6281 18.8747 28.6182 18.9215 28.6178 18.969C28.6174 19.0164 28.6264 19.0634 28.6444 19.1073C28.6623 19.1512 28.6889 19.1911 28.7224 19.2246C28.7559 19.2581 28.7958 19.2846 28.8397 19.3026C28.8836 19.3206 28.9306 19.3296 28.978 19.3292C29.0255 19.3288 29.0723 19.3189 29.1159 19.3002C29.1595 19.2815 29.1989 19.2543 29.2318 19.2202L30.242 18.21C30.2761 18.177 30.3034 18.1376 30.3221 18.094C30.3408 18.0505 30.3506 18.0036 30.3511 17.9562C30.3515 17.9087 30.3424 17.8617 30.3245 17.8178C30.3065 17.7739 30.28 17.7341 30.2465 17.7005C30.2129 17.667 30.1731 17.6405 30.1292 17.6225C30.0853 17.6046 30.0382 17.5955 29.9908 17.5959C29.9434 17.5963 29.8965 17.6062 29.853 17.6249C29.8094 17.6436 29.77 17.6708 29.737 17.705Z" fill="#193B2C"/>
<path d="M29.2318 28.8167C29.1645 28.7516 29.0742 28.7156 28.9806 28.7164C28.887 28.7172 28.7974 28.7548 28.7312 28.821C28.665 28.8872 28.6274 28.9768 28.6266 29.0705C28.6258 29.1641 28.6618 29.2543 28.7268 29.3217L29.737 30.3319C29.8044 30.3969 29.8946 30.4329 29.9883 30.4321C30.0819 30.4313 30.1715 30.3937 30.2377 30.3275C30.3039 30.2613 30.3415 30.1717 30.3423 30.0781C30.3431 29.9845 30.3071 29.8942 30.242 29.8269L29.2318 28.8167Z" fill="#193B2C"/>
<path d="M32.5 23.6613H31.0714C30.9767 23.6613 30.8859 23.6989 30.8189 23.7659C30.7519 23.8329 30.7143 23.9237 30.7143 24.0184C30.7143 24.1131 30.7519 24.204 30.8189 24.271C30.8859 24.3379 30.9767 24.3756 31.0714 24.3756H32.5C32.5947 24.3756 32.6856 24.3379 32.7525 24.271C32.8195 24.204 32.8571 24.1131 32.8571 24.0184C32.8571 23.9237 32.8195 23.8329 32.7525 23.7659C32.6856 23.6989 32.5947 23.6613 32.5 23.6613Z" fill="#193B2C"/>
<path d="M22.6606 1.96123C23.5182 1.606 24.4818 1.606 25.3394 1.96122L39.2485 7.72256C40.1061 8.07779 40.7874 8.75915 41.1427 9.61675L46.904 23.5258C47.2592 24.3834 47.2592 25.347 46.904 26.2046L41.1427 40.1137C40.7874 40.9713 40.1061 41.6527 39.2485 42.0079L25.3394 47.7692C24.4818 48.1245 23.5182 48.1245 22.6606 47.7692L8.75152 42.0079C7.89392 41.6527 7.21256 40.9713 6.85733 40.1137L1.09599 26.2046C0.740763 25.347 0.740762 24.3834 1.09599 23.5258L6.85733 9.61675C7.21255 8.75915 7.89392 8.07779 8.75151 7.72256L22.6606 1.96123Z" stroke="#193B2C"/>
</svg>
