<svg width="48" height="49" viewBox="0 0 48 49" fill="none" xmlns="http://www.w3.org/2000/svg">
<path d="M19.1333 33.1565H15.1C14.8083 33.1565 14.5285 33.0406 14.3222 32.8343C14.1159 32.628 14 32.3482 14 32.0565V17.7565C14 17.4648 14.1159 17.185 14.3222 16.9787C14.5285 16.7724 14.8083 16.6565 15.1 16.6565H16.5667C16.6639 16.6565 16.7572 16.6951 16.8259 16.7639C16.8947 16.8327 16.9333 16.9259 16.9333 17.0232C16.9333 17.1204 16.8947 17.2137 16.8259 17.2824C16.7572 17.3512 16.6639 17.3898 16.5667 17.3898H15.1C15.0028 17.3898 14.9095 17.4285 14.8407 17.4972C14.772 17.566 14.7333 17.6593 14.7333 17.7565V32.0565C14.7333 32.1538 14.772 32.247 14.8407 32.3158C14.9095 32.3845 15.0028 32.4232 15.1 32.4232H19.1333C19.2306 32.4232 19.3238 32.4618 19.3926 32.5306C19.4614 32.5993 19.5 32.6926 19.5 32.7898C19.5 32.8871 19.4614 32.9804 19.3926 33.0491C19.3238 33.1179 19.2306 33.1565 19.1333 33.1565Z" fill="#193B2C"/>
<path d="M27.5667 21.0565C27.4694 21.0565 27.3762 21.0179 27.3074 20.9491C27.2386 20.8804 27.2 20.7871 27.2 20.6898V17.7565C27.2 17.6593 27.1614 17.566 27.0926 17.4972C27.0238 17.4285 26.9306 17.3898 26.8333 17.3898H25.3667C25.2694 17.3898 25.1762 17.3512 25.1074 17.2824C25.0386 17.2137 25 17.1204 25 17.0232C25 16.9259 25.0386 16.8327 25.1074 16.7639C25.1762 16.6951 25.2694 16.6565 25.3667 16.6565H26.8333C27.1251 16.6565 27.4049 16.7724 27.6111 16.9787C27.8174 17.185 27.9333 17.4648 27.9333 17.7565V20.6898C27.9333 20.7871 27.8947 20.8804 27.8259 20.9491C27.7572 21.0179 27.6639 21.0565 27.5667 21.0565Z" fill="#193B2C"/>
<path d="M23.5333 18.4898H18.4C18.1083 18.4898 17.8285 18.374 17.6222 18.1677C17.4159 17.9614 17.3 17.6816 17.3 17.3898V16.6565C17.3 16.3648 17.4159 16.085 17.6222 15.8787C17.8285 15.6724 18.1083 15.5565 18.4 15.5565H23.5333C23.8251 15.5565 24.1049 15.6724 24.3111 15.8787C24.5174 16.085 24.6333 16.3648 24.6333 16.6565V17.3898C24.6333 17.6816 24.5174 17.9614 24.3111 18.1677C24.1049 18.374 23.8251 18.4898 23.5333 18.4898ZM18.4 16.2898C18.3028 16.2898 18.2095 16.3285 18.1407 16.3972C18.072 16.466 18.0333 16.5593 18.0333 16.6565V17.3898C18.0333 17.4871 18.072 17.5804 18.1407 17.6491C18.2095 17.7179 18.3028 17.7565 18.4 17.7565H23.5333C23.6306 17.7565 23.7238 17.7179 23.7926 17.6491C23.8614 17.5804 23.9 17.4871 23.9 17.3898V16.6565C23.9 16.5593 23.8614 16.466 23.7926 16.3972C23.7238 16.3285 23.6306 16.2898 23.5333 16.2898H18.4Z" fill="#193B2C"/>
<path d="M22.4333 16.2898H19.5C19.4028 16.2898 19.3095 16.2512 19.2407 16.1824C19.172 16.1137 19.1333 16.0204 19.1333 15.9232V15.1898C19.1333 14.8981 19.2492 14.6183 19.4555 14.412C19.6618 14.2057 19.9416 14.0898 20.2333 14.0898H21.7C21.9917 14.0898 22.2715 14.2057 22.4778 14.412C22.6841 14.6183 22.8 14.8981 22.8 15.1898V15.9232C22.8 16.0204 22.7614 16.1137 22.6926 16.1824C22.6238 16.2512 22.5306 16.2898 22.4333 16.2898ZM19.8667 15.5565H22.0667V15.1898C22.0667 15.0926 22.028 14.9993 21.9593 14.9306C21.8905 14.8618 21.7972 14.8232 21.7 14.8232H20.2333C20.1361 14.8232 20.0428 14.8618 19.9741 14.9306C19.9053 14.9993 19.8667 15.0926 19.8667 15.1898V15.5565Z" fill="#193B2C"/>
<path d="M25.3667 32.0565C24.7478 32.0568 24.1372 31.9147 23.5821 31.6412C23.0269 31.3677 22.5422 30.9702 22.1653 30.4793C21.7885 29.9884 21.5296 29.4174 21.4088 28.8104C21.288 28.2035 21.3085 27.5769 21.4687 26.9791C21.6289 26.3814 21.9245 25.8285 22.3326 25.3633C22.7408 24.8981 23.2505 24.533 23.8223 24.2964C24.3941 24.0597 25.0127 23.9578 25.6302 23.9986C26.2477 24.0394 26.8476 24.2217 27.3833 24.5314C27.4631 24.5821 27.5203 24.6618 27.5428 24.7536C27.5653 24.8455 27.5514 24.9425 27.5041 25.0243C27.4567 25.1062 27.3796 25.1666 27.2888 25.193C27.198 25.2193 27.1005 25.2096 27.0167 25.1657C26.3228 24.764 25.5065 24.6281 24.7199 24.7836C23.9333 24.9391 23.23 25.3752 22.7412 26.0108C22.2523 26.6464 22.0112 27.438 22.0627 28.2381C22.1143 29.0383 22.455 29.7924 23.0214 30.36C23.5877 30.9276 24.3411 31.2699 25.1412 31.3231C25.9412 31.3764 26.7334 31.137 27.37 30.6494C28.0066 30.1619 28.4442 29.4596 28.6013 28.6733C28.7585 27.8871 28.6244 27.0705 28.2241 26.3757C28.1789 26.2918 28.1682 26.1936 28.1943 26.1018C28.2203 26.0101 28.281 25.9322 28.3636 25.8845C28.4461 25.8368 28.544 25.8231 28.6364 25.8464C28.7289 25.8697 28.8086 25.928 28.8588 26.0091C29.2121 26.6221 29.398 27.3173 29.3977 28.0248C29.3974 28.7324 29.211 29.4274 28.8572 30.0401C28.5033 30.6529 27.9945 31.1617 27.3819 31.5156C26.7692 31.8696 26.0742 32.0561 25.3667 32.0565Z" fill="#193B2C"/>
<path d="M25.3667 34.9898C24.2785 34.9904 23.2053 34.736 22.2331 34.247C21.261 33.7581 20.4169 33.0482 19.7684 32.1743C19.12 31.3004 18.6854 30.2868 18.4993 29.2146C18.3132 28.1424 18.3808 27.0416 18.6968 26.0003C19.0128 24.959 19.5683 24.0062 20.3188 23.2182C21.0693 22.4303 21.994 21.8291 23.0187 21.4629C24.0434 21.0967 25.1397 20.9756 26.2196 21.1093C27.2996 21.2431 28.3332 21.628 29.2376 22.2331C29.2778 22.2599 29.3124 22.2943 29.3392 22.3344C29.3661 22.3745 29.3849 22.4195 29.3943 22.4669C29.4037 22.5142 29.4037 22.563 29.3943 22.6103C29.3849 22.6577 29.3661 22.7027 29.3392 22.7428C29.3123 22.7829 29.2778 22.8173 29.2376 22.844C29.1973 22.8708 29.1522 22.8893 29.1048 22.8985C29.0574 22.9077 29.0087 22.9075 28.9613 22.8978C28.914 22.8882 28.8691 22.8693 28.8291 22.8422C27.5412 21.9807 25.9789 21.6291 24.4462 21.8559C22.9134 22.0826 21.5198 22.8714 20.5365 24.0689C19.5532 25.2663 19.0505 26.7867 19.1262 28.3343C19.2019 29.8819 19.8506 31.346 20.9461 32.4417C22.0416 33.5374 23.5055 34.1865 25.0531 34.2625C26.6007 34.3386 28.1212 33.8362 29.3188 32.8531C30.5165 31.87 31.3056 30.4766 31.5327 28.9439C31.7597 27.4112 31.4085 25.8488 30.5473 24.5607C30.4931 24.4799 30.4733 24.3809 30.4921 24.2855C30.511 24.19 30.567 24.106 30.6478 24.0518C30.7286 23.9976 30.8276 23.9778 30.923 23.9966C31.0185 24.0155 31.1025 24.0715 31.1567 24.1523C31.8585 25.2009 32.2622 26.4205 32.3248 27.6807C32.3873 28.9409 32.1062 30.1945 31.5117 31.3074C30.9171 32.4203 30.0313 33.3508 28.949 33.9994C27.8667 34.6479 26.6285 34.9903 25.3667 34.9898Z" fill="#193B2C"/>
<path d="M25.3667 25.8232C25.2694 25.8232 25.1762 25.7845 25.1074 25.7158C25.0386 25.647 25 25.5538 25 25.4565V20.3232C25 20.2259 25.0386 20.1327 25.1074 20.0639C25.1762 19.9951 25.2694 19.9565 25.3667 19.9565C25.4639 19.9565 25.5572 19.9951 25.6259 20.0639C25.6947 20.1327 25.7333 20.2259 25.7333 20.3232V25.4565C25.7333 25.5538 25.6947 25.647 25.6259 25.7158C25.5572 25.7845 25.4639 25.8232 25.3667 25.8232Z" fill="#193B2C"/>
<path d="M22.8 28.3898H17.6667C17.5694 28.3898 17.4762 28.3512 17.4074 28.2824C17.3386 28.2137 17.3 28.1204 17.3 28.0232C17.3 27.9259 17.3386 27.8327 17.4074 27.7639C17.4762 27.6951 17.5694 27.6565 17.6667 27.6565H22.8C22.8972 27.6565 22.9905 27.6951 23.0593 27.7639C23.128 27.8327 23.1667 27.9259 23.1667 28.0232C23.1667 28.1204 23.128 28.2137 23.0593 28.2824C22.9905 28.3512 22.8972 28.3898 22.8 28.3898Z" fill="#193B2C"/>
<path d="M25.3667 36.0898C25.2694 36.0898 25.1762 36.0512 25.1074 35.9825C25.0386 35.9137 25 35.8204 25 35.7232V30.5898C25 30.4926 25.0386 30.3993 25.1074 30.3306C25.1762 30.2618 25.2694 30.2232 25.3667 30.2232C25.4639 30.2232 25.5572 30.2618 25.6259 30.3306C25.6947 30.3993 25.7333 30.4926 25.7333 30.5898V35.7232C25.7333 35.8204 25.6947 35.9137 25.6259 35.9825C25.5572 36.0512 25.4639 36.0898 25.3667 36.0898Z" fill="#193B2C"/>
<path d="M33.0667 28.3898H27.9333C27.8361 28.3898 27.7428 28.3512 27.6741 28.2824C27.6053 28.2137 27.5667 28.1204 27.5667 28.0232C27.5667 27.9259 27.6053 27.8327 27.6741 27.7639C27.7428 27.6951 27.8361 27.6565 27.9333 27.6565H33.0667C33.1639 27.6565 33.2572 27.6951 33.3259 27.7639C33.3947 27.8327 33.4333 27.9259 33.4333 28.0232C33.4333 28.1204 33.3947 28.2137 33.3259 28.2824C33.2572 28.3512 33.1639 28.3898 33.0667 28.3898Z" fill="#193B2C"/>
<path d="M25.3667 28.3898C25.2942 28.3898 25.2233 28.3683 25.163 28.328C25.1027 28.2877 25.0557 28.2305 25.028 28.1635C25.0002 28.0965 24.993 28.0228 25.0071 27.9517C25.0213 27.8805 25.0562 27.8152 25.1074 27.7639L29.4 23.4714V21.4232C29.4 21.3259 29.4387 21.2327 29.5074 21.1639L31.7074 18.9639C31.7587 18.9127 31.824 18.8778 31.8952 18.8636C31.9663 18.8495 32.04 18.8567 32.107 18.8845C32.174 18.9122 32.2312 18.9592 32.2715 19.0195C32.3118 19.0798 32.3333 19.1507 32.3333 19.2232V21.0565H34.1667C34.2392 21.0565 34.3101 21.078 34.3703 21.1183C34.4306 21.1586 34.4776 21.2159 34.5054 21.2829C34.5331 21.3499 34.5404 21.4236 34.5262 21.4947C34.5121 21.5658 34.4772 21.6311 34.4259 21.6824L32.2259 23.8824C32.1572 23.9512 32.0639 23.9898 31.9667 23.9898H29.9185L25.6259 28.2824C25.5572 28.3512 25.4639 28.3898 25.3667 28.3898ZM30.6518 23.2565H31.8149L33.2815 21.7898H32.1185L30.6518 23.2565ZM30.1333 21.575V22.738L31.6 21.2714V20.1083L30.1333 21.575Z" fill="#193B2C"/>
<path d="M16.9333 20.6898H16.2C16.1028 20.6898 16.0095 20.6512 15.9407 20.5824C15.872 20.5137 15.8333 20.4204 15.8333 20.3232C15.8333 20.2259 15.872 20.1327 15.9407 20.0639C16.0095 19.9951 16.1028 19.9565 16.2 19.9565H16.9333C17.0306 19.9565 17.1238 19.9951 17.1926 20.0639C17.2614 20.1327 17.3 20.2259 17.3 20.3232C17.3 20.4204 17.2614 20.5137 17.1926 20.5824C17.1238 20.6512 17.0306 20.6898 16.9333 20.6898Z" fill="#193B2C"/>
<path d="M23.9 20.6898H18.4C18.3028 20.6898 18.2095 20.6512 18.1407 20.5824C18.072 20.5137 18.0333 20.4204 18.0333 20.3232C18.0333 20.2259 18.072 20.1327 18.1407 20.0639C18.2095 19.9951 18.3028 19.9565 18.4 19.9565H23.9C23.9972 19.9565 24.0905 19.9951 24.1593 20.0639C24.228 20.1327 24.2667 20.2259 24.2667 20.3232C24.2667 20.4204 24.228 20.5137 24.1593 20.5824C24.0905 20.6512 23.9972 20.6898 23.9 20.6898Z" fill="#193B2C"/>
<path d="M16.9333 23.9898H16.2C16.1028 23.9898 16.0095 23.9512 15.9407 23.8825C15.872 23.8137 15.8333 23.7204 15.8333 23.6232C15.8333 23.5259 15.872 23.4327 15.9407 23.3639C16.0095 23.2951 16.1028 23.2565 16.2 23.2565H16.9333C17.0306 23.2565 17.1238 23.2951 17.1926 23.3639C17.2614 23.4327 17.3 23.5259 17.3 23.6232C17.3 23.7204 17.2614 23.8137 17.1926 23.8825C17.1238 23.9512 17.0306 23.9898 16.9333 23.9898Z" fill="#193B2C"/>
<path d="M19.1333 23.9898H18.4C18.3028 23.9898 18.2095 23.9512 18.1407 23.8825C18.072 23.8137 18.0333 23.7204 18.0333 23.6232C18.0333 23.5259 18.072 23.4327 18.1407 23.3639C18.2095 23.2951 18.3028 23.2565 18.4 23.2565H19.1333C19.2306 23.2565 19.3238 23.2951 19.3926 23.3639C19.4614 23.4327 19.5 23.5259 19.5 23.6232C19.5 23.7204 19.4614 23.8137 19.3926 23.8825C19.3238 23.9512 19.2306 23.9898 19.1333 23.9898Z" fill="#193B2C"/>
<path d="M22.6606 1.96123C23.5182 1.606 24.4818 1.606 25.3394 1.96122L39.2485 7.72256C40.1061 8.07779 40.7874 8.75915 41.1427 9.61675L46.904 23.5258C47.2592 24.3834 47.2592 25.347 46.904 26.2046L41.1427 40.1137C40.7874 40.9713 40.1061 41.6527 39.2485 42.0079L25.3394 47.7692C24.4818 48.1245 23.5182 48.1245 22.6606 47.7692L8.75152 42.0079C7.89392 41.6527 7.21256 40.9713 6.85733 40.1137L1.09599 26.2046C0.740763 25.347 0.740762 24.3834 1.09599 23.5258L6.85733 9.61675C7.21255 8.75915 7.89392 8.07779 8.75151 7.72256L22.6606 1.96123Z" stroke="#193B2C"/>
</svg>
