<svg width="48" height="49" viewBox="0 0 48 49" fill="none" xmlns="http://www.w3.org/2000/svg">
<path d="M22.6606 1.96123C23.5182 1.606 24.4818 1.606 25.3394 1.96122L39.2485 7.72256C40.1061 8.07779 40.7874 8.75915 41.1427 9.61675L46.904 23.5258C47.2592 24.3834 47.2592 25.347 46.904 26.2046L41.1427 40.1137C40.7874 40.9713 40.1061 41.6527 39.2485 42.0079L25.3394 47.7692C24.4818 48.1245 23.5182 48.1245 22.6606 47.7692L8.75152 42.0079C7.89392 41.6527 7.21256 40.9713 6.85733 40.1137L1.09599 26.2046C0.740763 25.347 0.740762 24.3834 1.09599 23.5258L6.85733 9.61675C7.21255 8.75915 7.89392 8.07779 8.75151 7.72256L22.6606 1.96123Z" stroke="#193B2C"/>
<path d="M13.9167 19.4203C14.4221 19.4203 14.8333 19.009 14.8333 18.5036V15.9232H17.4137C17.9191 15.9232 18.3304 15.5119 18.3304 15.0065C18.3304 14.5011 17.9191 14.0899 17.4137 14.0899H14.8333C13.8225 14.0899 13 14.9123 13 15.9232V18.5037C13 19.0091 13.4112 19.4203 13.9167 19.4203ZM13.4583 15.9232C13.4583 15.165 14.0751 14.5482 14.8333 14.5482H17.4137C17.6665 14.5482 17.8721 14.7538 17.8721 15.0065C17.8721 15.2593 17.6664 15.4648 17.4137 15.4648H14.8333C14.5805 15.4648 14.375 15.6704 14.375 15.9232V18.5037C14.375 18.7565 14.1694 18.962 13.9167 18.962C13.6639 18.962 13.4583 18.7565 13.4583 18.5037L13.4583 15.9232Z" fill="#193B2C"/>
<path d="M14.8333 36.0898H17.4137C17.9191 36.0898 18.3304 35.6786 18.3304 35.1732C18.3304 34.6677 17.9191 34.2565 17.4137 34.2565H14.8333V31.6762C14.8333 31.1707 14.4221 30.7595 13.9167 30.7595C13.4113 30.7595 13 31.1708 13 31.6762V34.2565C13 35.2674 13.8225 36.0898 14.8333 36.0898ZM13.4583 31.6761C13.4583 31.4234 13.6639 31.2178 13.9167 31.2178C14.1695 31.2178 14.375 31.4234 14.375 31.6761V34.2565C14.375 34.5093 14.5806 34.7148 14.8333 34.7148H17.4137C17.6665 34.7148 17.8721 34.9204 17.8721 35.1732C17.8721 35.426 17.6665 35.6315 17.4137 35.6315H14.8333C14.0751 35.6315 13.4583 35.0148 13.4583 34.2565V31.6761Z" fill="#193B2C"/>
<path d="M34.0833 19.4203C34.5887 19.4203 35 19.009 35 18.5036V15.9232C35 14.9123 34.1775 14.0898 33.1666 14.0898H30.5885C30.083 14.0898 29.6719 14.5011 29.6719 15.0065C29.6719 15.5119 30.0831 15.9231 30.5885 15.9231H33.1667V18.5036C33.1667 19.0091 33.5779 19.4203 34.0833 19.4203ZM30.5886 15.4648C30.3358 15.4648 30.1302 15.2593 30.1302 15.0065C30.1302 14.7537 30.3358 14.5481 30.5886 14.5481H33.1667C33.9249 14.5481 34.5417 15.1649 34.5417 15.9231V18.5036C34.5417 18.7564 34.3361 18.962 34.0833 18.962C33.8306 18.962 33.625 18.7564 33.625 18.5036V15.9232C33.625 15.6704 33.4194 15.4648 33.1667 15.4648H30.5886Z" fill="#193B2C"/>
<path d="M35 34.2565V31.6761C35 31.1707 34.5887 30.7595 34.0833 30.7595C33.5779 30.7595 33.1667 31.1707 33.1667 31.6761V34.2565H30.5886C30.0831 34.2565 29.6719 34.6677 29.6719 35.1731C29.6719 35.6786 30.0832 36.0898 30.5886 36.0898H33.1667C34.1775 36.0898 35 35.2674 35 34.2565ZM30.1302 35.1731C30.1302 34.9204 30.3358 34.7148 30.5886 34.7148H33.1667C33.4195 34.7148 33.625 34.5092 33.625 34.2565V31.6761C33.625 31.4233 33.8306 31.2177 34.0834 31.2177C34.3362 31.2177 34.5417 31.4233 34.5417 31.6761V34.2565C34.5417 35.0147 33.925 35.6315 33.1667 35.6315H30.5886C30.3357 35.6315 30.1302 35.426 30.1302 35.1731Z" fill="#193B2C"/>
<path d="M24 35.327C24.1265 35.327 24.2292 35.2244 24.2292 35.0978V33.3822C28.6243 33.2599 32.1724 29.7214 32.2923 25.3193H34.0078C34.1344 25.3193 34.237 25.2167 34.237 25.0901C34.237 24.9636 34.1344 24.8609 34.0078 24.8609H32.2917C32.1702 20.4689 28.6215 16.9205 24.2292 16.7995V15.0824C24.2292 14.9558 24.1265 14.8532 24 14.8532C23.8734 14.8532 23.7708 14.9558 23.7708 15.0824V16.7994C19.3788 16.9185 15.8299 20.4677 15.7084 24.861H13.9923C13.8658 24.861 13.7631 24.9636 13.7631 25.0901C13.7631 25.2167 13.8657 25.3193 13.9923 25.3193H15.7078C15.8273 29.7069 19.3608 33.2613 23.7708 33.3823V35.0979C23.7708 35.2245 23.8735 35.327 24 35.327ZM17.8729 29.9736C16.7666 28.5926 16.161 26.8744 16.161 25.093C16.161 20.7695 19.6767 17.252 23.9981 17.252C28.3216 17.252 31.8391 20.7695 31.8391 25.093C31.8391 26.874 31.2337 28.5919 30.1271 29.9735C29.6189 28.8399 28.5009 28.1013 27.229 28.1013H25.4369V27.6981C26.4281 27.1785 27.1069 26.1409 27.1069 24.9462C27.1066 24.9233 27.1173 22.7724 27.1177 22.7491C27.1177 21.5209 26.1186 20.5218 24.8904 20.5218H23.1099C21.8817 20.5218 20.8826 21.5209 20.8826 22.7491C20.8827 22.7725 20.8907 24.397 20.8933 24.9462C20.8933 26.1408 21.572 27.1784 22.5632 27.6981V28.1014H20.7712C19.4992 28.1014 18.3811 28.8399 17.8729 29.9736ZM24.0001 27.5947C22.5398 27.5947 21.3516 26.4067 21.3516 24.9463V24.2168C21.3516 24.1897 21.3448 24.1646 21.3362 24.1404C22.361 23.1596 22.9815 23.459 23.832 23.8751C24.7739 24.336 25.5413 24.6092 26.6485 24.3425V24.9463C26.6485 26.4067 25.4605 27.5947 24.0001 27.5947ZM24.9785 27.8927V28.7591C24.9785 29.2986 24.5395 29.7376 24 29.7376C23.4558 29.7376 23.0215 29.2981 23.0215 28.7591V27.8927C23.3296 27.9953 23.658 28.053 24.0001 28.053C24.3422 28.053 24.6705 27.9953 24.9785 27.8927ZM21.3408 23.5267V22.7492C21.3408 21.7737 22.1344 20.9802 23.1098 20.9802H24.8903C25.8657 20.9802 26.6593 21.7738 26.6593 22.7492V23.8665C25.5102 24.1862 24.7598 23.8188 24.0334 23.4634C23.002 22.9586 22.3178 22.7619 21.3408 23.5267ZM18.2076 30.3625C18.5943 29.2788 19.6086 28.5597 20.7711 28.5597H22.5631V28.759C22.5631 29.5529 23.2046 30.1959 24 30.1959C24.7923 30.1959 25.4369 29.5514 25.4369 28.759V28.5597H27.229C28.3915 28.5597 29.4058 29.2789 29.7925 30.3625C28.3596 31.9454 26.2616 32.9299 23.9978 32.9299C21.8325 32.93 19.7053 32.0161 18.2076 30.3625Z" fill="#193B2C"/>
</svg>
