<svg width="48" height="49" viewBox="0 0 48 49" fill="none" xmlns="http://www.w3.org/2000/svg">
<path fill-rule="evenodd" clip-rule="evenodd" d="M21.9033 26.2255H20.9502C20.8207 26.2255 20.7022 26.1676 20.6241 26.034C20.6229 26.0321 20.6218 26.0301 20.6207 26.0281C20.57 25.9369 20.5534 25.8324 20.5787 25.7237C20.582 25.7095 20.5863 25.6956 20.5916 25.682L21.1245 24.3051C21.0223 24.3044 20.9269 24.2536 20.8692 24.1691C20.8112 24.0841 20.7988 23.9758 20.8364 23.8798L21.2525 22.8154C21.2249 22.796 21.2004 22.772 21.1801 22.744C21.1214 22.6633 21.105 22.5594 21.1358 22.4645C21.1358 22.4645 21.8479 20.2706 21.8478 20.271C21.8994 20.0814 22.0567 19.9814 22.214 19.9808H22.2161C22.3734 19.9814 22.5308 20.0815 22.5822 20.2706L23.2943 22.4645C23.3251 22.5594 23.3087 22.6633 23.25 22.744C23.2297 22.772 23.2052 22.796 23.1776 22.8154L23.5937 23.8798C23.6312 23.9758 23.6189 24.0841 23.5609 24.1691C23.5031 24.2536 23.4077 24.3044 23.3055 24.3051L23.6754 25.2608L24.2151 23.8803C24.1544 23.8599 24.1007 23.8211 24.0621 23.7681C24.0034 23.6873 23.987 23.5834 24.0178 23.4885C24.0178 23.4885 25.0012 20.4588 25.001 20.4597C25.0557 20.2546 25.2236 20.1444 25.3931 20.1438H25.3953C25.5647 20.1444 25.7326 20.2545 25.7872 20.4588L26.7706 23.4885C26.8015 23.5834 26.785 23.6873 26.7263 23.7681C26.6878 23.8211 26.634 23.8599 26.5734 23.8803L27.1861 25.4478C27.2236 25.5437 27.2113 25.652 27.1532 25.7371C27.0951 25.8221 26.9987 25.873 26.8957 25.873H26.726L27.1081 26.8602L27.6186 25.5412C27.5164 25.5405 27.421 25.4898 27.3633 25.4053C27.3052 25.3202 27.2929 25.212 27.3304 25.116L27.7465 24.0515C27.719 24.0321 27.6945 24.0081 27.6741 23.9802C27.6155 23.8994 27.599 23.7955 27.6298 23.7006C27.6298 23.7006 28.342 21.5068 28.3418 21.5072C28.3934 21.3176 28.5507 21.2175 28.708 21.217H28.7102C28.8675 21.2175 29.0249 21.3176 29.0762 21.5068L29.7884 23.7006C29.8192 23.7955 29.8027 23.8994 29.744 23.9802C29.7237 24.0081 29.6992 24.0321 29.6717 24.0515L30.0878 25.116C30.1253 25.212 30.113 25.3202 30.0549 25.4053C29.9972 25.4898 29.9018 25.5405 29.7996 25.5412L30.3325 26.9182C30.3378 26.9318 30.3421 26.9457 30.3454 26.9599C30.3707 27.0686 30.3541 27.1731 30.3034 27.2643C30.3023 27.2663 30.3012 27.2683 30.3001 27.2702C30.2219 27.4038 30.1034 27.4617 29.9739 27.4617H29.0208V28.709C29.0208 28.8811 28.8811 29.0208 28.7091 29.0208C28.537 29.0208 28.3974 28.8811 28.3974 28.709V27.4617H27.4443C27.4067 27.4617 27.37 27.4568 27.335 27.4466L27.5236 27.9338C27.5288 27.9474 27.5332 27.9613 27.5365 27.9755C27.5644 28.0952 27.5463 28.2105 27.4904 28.311C27.4893 28.313 27.4881 28.315 27.487 28.3169C27.4035 28.4596 27.2775 28.5225 27.1392 28.5225H25.706V30.3617C25.706 30.5338 25.5663 30.6735 25.3942 30.6735C25.2222 30.6735 25.0825 30.5338 25.0825 30.3617V28.5225H23.6492C23.5109 28.5225 23.3849 28.4596 23.3014 28.3169C23.3003 28.315 23.2992 28.313 23.2981 28.311C23.2422 28.2105 23.224 28.0952 23.252 27.9755C23.2553 27.9613 23.2595 27.9474 23.2648 27.9338L24.0625 25.873H23.8927C23.8818 25.873 23.871 25.8725 23.8604 25.8713C23.8539 25.9265 23.8366 25.9792 23.8094 26.0281C23.8083 26.0301 23.8071 26.0321 23.806 26.034C23.7279 26.1676 23.6094 26.2255 23.4798 26.2255H22.5268V27.4728C22.5268 27.6449 22.3871 27.7846 22.215 27.7846C22.043 27.7846 21.9033 27.6449 21.9033 27.4728V26.2255ZM21.2911 25.602H23.1389L22.5599 24.1059C22.5228 24.01 22.5353 23.902 22.5934 23.8171C22.6508 23.7334 22.7454 23.6829 22.8468 23.6816L22.453 22.6742C22.4155 22.5783 22.4279 22.47 22.4859 22.3849C22.5117 22.3471 22.5451 22.3161 22.5832 22.2932L22.215 21.159L21.8469 22.2932C21.885 22.3161 21.9183 22.3471 21.9442 22.3849C22.0022 22.47 22.0146 22.5783 21.9771 22.6742L21.5833 23.6816C21.6847 23.6829 21.7793 23.7334 21.8367 23.8171C21.8948 23.902 21.9073 24.01 21.8702 24.1059L21.2911 25.602ZM23.9468 27.899H26.8416L25.9803 25.6738C25.9432 25.5779 25.9558 25.4699 26.0139 25.3851C26.072 25.3002 26.1682 25.2495 26.271 25.2495H26.4392L25.8328 23.6983C25.7952 23.6023 25.8076 23.494 25.8657 23.409C25.9093 23.345 25.9746 23.3004 26.0482 23.2822L25.3942 21.2676L24.7403 23.2822C24.8137 23.3004 24.8791 23.345 24.9228 23.409C24.9808 23.494 24.9931 23.6023 24.9556 23.6983L24.3493 25.2495H24.5174C24.6202 25.2495 24.7164 25.3002 24.7746 25.3851C24.8327 25.4699 24.8452 25.5779 24.8081 25.6738L23.9468 27.899ZM27.7852 26.8382H29.633L29.0539 25.342C29.0168 25.2462 29.0294 25.1381 29.0875 25.0533C29.1449 24.9695 29.2395 24.919 29.3409 24.9178L28.9471 23.9104C28.9096 23.8144 28.9219 23.7062 28.98 23.6211C29.0057 23.5833 29.0391 23.5522 29.0773 23.5294L28.7091 22.3951L28.3409 23.5294C28.3791 23.5522 28.4124 23.5833 28.4382 23.6211C28.4963 23.7062 28.5086 23.8144 28.4711 23.9104L28.0773 24.9178C28.1787 24.919 28.2733 24.9695 28.3307 25.0533C28.3889 25.1381 28.4014 25.2462 28.3643 25.342L27.7852 26.8382ZM19.1937 34.4097C19.221 34.4756 19.2485 34.5414 19.2759 34.6073L19.276 34.6076C19.3555 34.7999 19.3557 34.9936 19.2771 35.1872L19.2765 35.1886C19.197 35.3793 19.0601 35.5169 18.867 35.5982L18.8662 35.5985L17.8211 36.0318C17.4362 36.1924 16.9905 36.008 16.8309 35.6234C16.2412 34.2067 15.6508 32.7899 15.0617 31.3742C14.98 31.1817 14.9795 30.9864 15.0597 30.7924C15.1395 30.5994 15.2775 30.4617 15.4692 30.3818L16.5154 29.9475C16.9001 29.7879 17.3444 29.9706 17.5056 30.3555L17.5058 30.3559C17.5272 30.4073 17.5486 30.4588 17.57 30.5102C18.0594 30.2787 18.548 30.0456 19.0346 29.8076C19.7417 29.4616 20.3001 29.2358 20.9493 29.3236C21.3705 29.3804 21.8347 29.5698 22.4039 29.9666L24.3221 30.4804C24.6504 30.5684 24.913 30.7826 25.0717 31.0569L27.7176 30.2808C28.9257 29.9263 29.5915 30.1997 29.8852 30.5967C30.0856 30.8675 30.1396 31.2179 30.0646 31.5646C29.9606 32.0453 29.6049 32.5114 29.121 32.6981L25.0397 34.2708C24.3409 34.5397 23.4062 34.9098 22.6564 34.692L20.4821 34.0613L20.4816 34.0612C20.2427 33.9914 20.0134 34.0108 19.7893 34.1199L19.1937 34.4097ZM18.6998 34.846C18.6351 34.6906 16.9932 30.7473 16.9302 30.5961C16.9016 30.5278 16.8228 30.4951 16.7545 30.5235L15.7088 30.9575C15.6747 30.9718 15.6502 30.9964 15.636 31.0307C15.6222 31.0641 15.6217 31.0977 15.6362 31.1318L15.6366 31.1327C16.2263 32.5498 16.8169 33.9668 17.4067 35.384L17.4067 35.3841C17.4349 35.4519 17.5133 35.4846 17.5817 35.456L18.6262 35.0229L18.6269 35.0227C18.661 35.008 18.6859 34.9838 18.7008 34.9488C18.714 34.9146 18.7139 34.8802 18.6998 34.846ZM18.9536 33.833L19.5163 33.5593C19.8853 33.3796 20.2628 33.3477 20.6559 33.4624L22.8301 34.0931C23.1237 34.1783 23.4521 34.1347 23.7757 34.0518C24.1434 33.9575 24.5051 33.8083 24.8156 33.6888L28.8965 32.1163C29.1861 32.0046 29.3928 31.7205 29.4551 31.4327C29.4909 31.2671 29.4797 31.0971 29.3839 30.9677C29.3016 30.8564 29.1605 30.7833 28.9606 30.7525C28.6945 30.7116 28.3439 30.7469 27.8931 30.8792L25.2391 31.6577C25.2409 31.7693 25.2275 31.8828 25.1973 31.9956C25.0213 32.6528 24.3389 33.047 23.6822 32.87L21.0618 32.1683C20.8955 32.1237 20.7967 31.9526 20.8413 31.7864C20.8858 31.6202 21.0569 31.5214 21.2231 31.5659L23.8435 32.2675L23.844 32.2677C24.1696 32.3555 24.5077 32.1599 24.5949 31.8343C24.6822 31.5084 24.4866 31.1701 24.1608 31.0828L22.1891 30.5546C22.1533 30.5451 22.1195 30.5292 22.0893 30.5077C21.6057 30.1645 21.22 29.9894 20.8658 29.9415C20.3351 29.8698 19.8867 30.085 19.3086 30.3678C18.8108 30.6113 18.3107 30.8498 17.8099 31.0866C18.1911 32.002 18.5724 32.9175 18.9536 33.833ZM31.2388 19.6694C30.7494 19.901 30.2607 20.1341 29.7742 20.3721C29.0671 20.7181 28.5087 20.9439 27.8594 20.8561C27.4383 20.7992 26.9741 20.6099 26.4049 20.2131L24.4866 19.6992C24.1584 19.6113 23.8958 19.3971 23.7371 19.1227L21.0912 19.8989C19.8831 20.2533 19.2173 19.9799 18.9236 19.583C18.7232 19.3121 18.6692 18.9617 18.7442 18.6151C18.8482 18.1343 19.2039 17.6683 19.6878 17.4816L23.7691 15.9089C24.4678 15.64 25.4025 15.2699 26.1524 15.4876L28.3267 16.1184L28.3272 16.1185C28.5661 16.1883 28.7954 16.1689 29.0195 16.0597L29.6151 15.77C29.5877 15.7041 29.5603 15.6383 29.5329 15.5724L29.5328 15.5721C29.4532 15.3798 29.4531 15.1861 29.5317 14.9925L29.5322 14.9911C29.6117 14.8004 29.7487 14.6628 29.9417 14.5815L29.9425 14.5811L30.9876 14.1479C31.3726 13.9873 31.8183 14.1717 31.9779 14.5563C32.5675 15.973 33.158 17.3898 33.7471 18.8055C33.8288 18.998 33.8292 19.1933 33.749 19.3873C33.6692 19.5802 33.5313 19.718 33.3396 19.7979L32.2933 20.2321C31.9087 20.3918 31.4644 20.2091 31.3032 19.8242L31.303 19.8238C31.2816 19.7724 31.2602 19.7209 31.2388 19.6694ZM29.8552 16.3467L29.2925 16.6204C28.9235 16.8001 28.5459 16.832 28.1529 16.7173L25.9786 16.0865C25.6851 16.0014 25.3567 16.045 25.0331 16.1279C24.6654 16.2222 24.3037 16.3713 23.9932 16.4909L19.9123 18.0634C19.6227 18.1751 19.416 18.4592 19.3537 18.747C19.3179 18.9126 19.3291 19.0826 19.4249 19.212C19.5072 19.3233 19.6483 19.3964 19.8481 19.4272C20.1142 19.4681 20.4649 19.4328 20.9156 19.3005L23.5697 18.522C23.5678 18.4104 23.5813 18.2968 23.6114 18.1841C23.7875 17.5269 24.4699 17.1327 25.1266 17.3097L27.747 18.0114C27.9132 18.056 28.012 18.2271 27.9675 18.3933C27.923 18.5595 27.7519 18.6583 27.5857 18.6138L24.9653 17.9122L24.9648 17.912C24.6391 17.8242 24.3011 18.0198 24.2139 18.3454C24.1266 18.6713 24.3221 19.0096 24.648 19.0969L26.6197 19.625C26.6555 19.6346 26.6893 19.6505 26.7195 19.6719C27.2031 20.0152 27.5887 20.1903 27.9429 20.2382C28.4737 20.3099 28.9221 20.0947 29.5001 19.8119C29.998 19.5684 30.4981 19.3299 30.9988 19.0931C30.6177 18.1777 30.2364 17.2622 29.8552 16.3467ZM30.109 15.3337C30.1737 15.4891 31.8156 19.4324 31.8785 19.5836C31.9072 19.6519 31.986 19.6845 32.0542 19.6562L33.1 19.2221C33.1341 19.2079 33.1586 19.1833 33.1728 19.149C33.1866 19.1156 33.1871 19.082 33.1726 19.0479L33.1722 19.0469C32.5825 17.6299 31.9919 16.2129 31.4021 14.7957L31.4021 14.7956C31.3739 14.7278 31.2955 14.6951 31.2271 14.7237L30.1825 15.1568L30.1819 15.157C30.1477 15.1717 30.1229 15.1959 30.1079 15.2309C30.0948 15.2651 30.0949 15.2995 30.109 15.3337Z" fill="#193B2C"/>
<path d="M22.6606 1.96123C23.5182 1.606 24.4818 1.606 25.3394 1.96122L39.2485 7.72256C40.1061 8.07779 40.7874 8.75915 41.1427 9.61675L46.904 23.5258C47.2592 24.3834 47.2592 25.347 46.904 26.2046L41.1427 40.1137C40.7874 40.9713 40.1061 41.6527 39.2485 42.0079L25.3394 47.7692C24.4818 48.1245 23.5182 48.1245 22.6606 47.7692L8.75152 42.0079C7.89392 41.6527 7.21256 40.9713 6.85733 40.1137L1.09599 26.2046C0.740763 25.347 0.740762 24.3834 1.09599 23.5258L6.85733 9.61675C7.21255 8.75915 7.89392 8.07779 8.75151 7.72256L22.6606 1.96123Z" stroke="#193B2C"/>
</svg>
