<svg width="48" height="49" viewBox="0 0 48 49" fill="none" xmlns="http://www.w3.org/2000/svg">
<path d="M30.367 25.432C30.2079 25.4028 30.0552 25.5082 30.0261 25.6673C29.9969 25.8265 30.1022 25.9791 30.2614 26.0083C31.9173 26.312 33.1191 27.755 33.1191 29.4396C33.1191 31.1329 31.9063 32.548 30.3039 32.8626C30.3007 32.8631 30.2975 32.8633 30.2944 32.8639C30.0742 32.9065 29.8508 32.9281 29.6305 32.9281C27.707 32.9281 26.142 31.3631 26.142 29.4396C26.142 27.733 27.3711 26.3069 28.9997 26.0083C29.1589 25.9791 29.2642 25.8265 29.235 25.6673C29.2059 25.5082 29.053 25.4027 28.8941 25.432C27.9603 25.6032 27.1507 26.0852 26.5625 26.7588L24.7409 26.0534V25.0366C25.401 24.5313 25.8562 23.7718 25.9595 22.9055C26.7441 22.8707 27.3282 22.243 27.3282 21.4966C27.3282 21.1508 27.2012 20.821 26.9753 20.5664V19.2805C26.9754 16.9698 25.0955 15.0898 22.7848 15.0898C20.4741 15.0898 18.5941 16.9698 18.5941 19.2805V20.5996C18.3657 20.8521 18.2413 21.1648 18.2413 21.4966C18.2413 22.2421 18.8243 22.8706 19.6099 22.9054C19.7128 23.7772 20.1729 24.5682 20.8976 25.0857V26.0533L16.7806 27.6494C16.7788 27.6501 16.777 27.6509 16.7751 27.6516C16.7027 27.6814 15 28.4043 15 30.3943V34.4262C15 34.7921 15.2977 35.0898 15.6637 35.0898C15.8453 35.0898 29.7895 35.0898 29.9825 35.0898C30.3467 35.0898 30.643 34.7936 30.643 34.4294V33.3868C32.4015 32.9355 33.705 31.337 33.705 29.4396C33.705 27.4721 32.3012 25.7867 30.367 25.432ZM25.5978 27.0136L24.5424 29.1287C24.5281 29.1186 24.2633 28.9305 23.2434 28.2062C23.9923 27.2818 23.7415 27.5914 24.5412 26.6043L25.5978 27.0136ZM23.575 29.1605L23.2733 29.6147H22.3675L22.0658 29.1605L22.8204 28.6246L23.575 29.1605ZM21.4836 26.1475V25.4162C21.8795 25.5865 22.3491 25.6859 22.8263 25.6859C23.2861 25.6859 23.7414 25.5852 24.155 25.3923V26.1502L22.8204 27.7976L21.4836 26.1475ZM26.4589 22.1156C26.3257 22.2302 26.1618 22.2984 25.9827 22.3162V20.6773C26.7331 20.7499 26.995 21.6545 26.4589 22.1156ZM19.587 22.3162C19.1365 22.2716 18.8273 21.9108 18.8273 21.4966C18.8273 21.0814 19.1879 20.756 19.587 20.6906V22.3162ZM19.5965 20.0985C19.46 20.111 19.2977 20.1513 19.1801 20.1971V19.2805C19.1801 17.2929 20.7971 15.6758 22.7847 15.6758C24.7723 15.6758 26.3894 17.2929 26.3894 19.2805V20.1714C26.2602 20.1254 26.1237 20.0976 25.9827 20.0892C25.9827 19.7371 26.0255 19.8373 25.0047 18.7421C24.9231 18.6546 24.8273 18.5261 24.6248 18.4836C24.484 18.4539 24.3329 18.4791 24.2045 18.5629C23.0532 19.315 21.6085 19.7372 20.2207 19.6462C19.8816 19.6239 19.6488 19.8167 19.5965 20.0985ZM20.1729 22.5296C20.1729 22.2842 20.1729 20.485 20.1729 20.2305C21.6638 20.3304 23.2368 19.889 24.5056 19.0661C25.0351 19.6349 25.3199 19.9302 25.3968 20.0292C25.3968 22.9517 25.3974 22.4317 25.3951 22.5938C25.3609 23.975 24.2287 25.1 22.8263 25.1C21.2661 25.1 20.1729 23.8971 20.1729 22.5296ZM21.0979 26.605L22.3959 28.2072C21.973 28.5075 21.3184 28.9726 21.0984 29.1288L20.0429 27.0136L21.0979 26.605ZM18.2982 34.5039V31.0189C18.2982 30.8571 18.1671 30.7259 18.0053 30.7259C17.8434 30.7259 17.7123 30.8571 17.7123 31.0189V34.5039H15.6637C15.6208 34.5039 15.586 34.469 15.586 34.4262V30.3944C15.586 28.8182 16.9173 28.2279 16.9961 28.1944L19.494 27.226L20.5929 29.4282C20.6647 29.5721 20.7954 29.6771 20.9515 29.7161C21.237 29.7875 21.4071 29.6283 21.5878 29.5L21.9022 29.9732L21.1354 34.5039H18.2982ZM27.3449 34.5039H24.5055L24.2425 32.9501C24.2155 32.7906 24.0648 32.6833 23.9048 32.7101C23.7452 32.7371 23.6378 32.8883 23.6648 33.0479L23.9113 34.5039H21.7297L22.458 30.2006H23.1829L23.4334 31.6805C23.4604 31.8401 23.6114 31.9475 23.7712 31.9205C23.9307 31.8936 24.0381 31.7423 24.0111 31.5828L23.7387 29.9732L24.0531 29.5L24.2376 29.631C24.5128 29.8265 24.8974 29.7299 25.0479 29.4283L26.1467 27.2262L26.1967 27.2455C25.7895 27.8827 25.5561 28.6412 25.5561 29.4397C25.5561 30.8399 26.2661 32.0773 27.345 32.811L27.3449 34.5039ZM30.0571 34.4294C30.0571 34.4705 30.0237 34.5039 29.9826 34.5039H27.9309V33.1422C28.4485 33.3808 29.0243 33.5142 29.6306 33.5142C29.7746 33.5142 29.9169 33.5066 30.0571 33.4919L30.0571 34.4294Z" fill="#193B2C"/>
<path d="M31.0173 28.5739C30.9043 28.458 30.7189 28.4556 30.6029 28.5686L29.4511 29.6913L28.9686 29.2184C28.853 29.1051 28.6675 29.107 28.5542 29.2225C28.441 29.3381 28.4428 29.5236 28.5584 29.6369L29.2454 30.3102C29.3024 30.366 29.3764 30.3939 29.4505 30.3939C29.5243 30.3939 29.5981 30.3662 29.655 30.3108L31.0119 28.9882C31.1278 28.8752 31.1302 28.6898 31.0173 28.5739Z" fill="#193B2C"/>
<path d="M29.6306 26.3957C27.9521 26.3957 26.5866 27.7612 26.5866 29.4396C26.5866 31.1181 27.9521 32.4836 29.6306 32.4836C31.309 32.4836 32.6745 31.1181 32.6745 29.4396C32.6745 27.7612 31.309 26.3957 29.6306 26.3957ZM29.6306 31.8976C28.2753 31.8976 27.1726 30.7949 27.1726 29.4396C27.1726 28.0843 28.2752 26.9816 29.6306 26.9816C30.9859 26.9816 32.0886 28.0843 32.0886 29.4396C32.0886 30.7949 30.9859 31.8976 29.6306 31.8976Z" fill="#193B2C"/>
<path d="M22.6606 1.96123C23.5182 1.606 24.4818 1.606 25.3394 1.96122L39.2485 7.72256C40.1061 8.07779 40.7874 8.75915 41.1427 9.61675L46.904 23.5258C47.2592 24.3834 47.2592 25.347 46.904 26.2046L41.1427 40.1137C40.7874 40.9713 40.1061 41.6527 39.2485 42.0079L25.3394 47.7692C24.4818 48.1245 23.5182 48.1245 22.6606 47.7692L8.75152 42.0079C7.89392 41.6527 7.21256 40.9713 6.85733 40.1137L1.09599 26.2046C0.740763 25.347 0.740762 24.3834 1.09599 23.5258L6.85733 9.61675C7.21255 8.75915 7.89392 8.07779 8.75151 7.72256L22.6606 1.96123Z" stroke="#193B2C"/>
</svg>
