<svg width="48" height="49" viewBox="0 0 48 49" fill="none" xmlns="http://www.w3.org/2000/svg">
<path d="M22.204 33.4792H22.0168C21.8552 32.834 21.6976 32.1987 21.5475 31.5614C21.26 30.3405 20.9653 29.5614 19.3282 29.097L17.7458 27.9603C17.4739 27.7651 17.1485 27.6978 16.8413 27.7471L15.7875 25.2597C15.0739 23.5751 14.1463 23.7718 13.8791 23.8723C13.2211 24.1196 12.8348 24.9914 13.0687 25.7014L14.4121 29.779C14.4263 29.8221 14.4407 29.8661 14.4553 29.911C14.6747 30.5844 14.9477 31.4224 15.5761 31.8543L17.4079 33.1132C17.5531 33.213 17.656 33.3322 17.7243 33.479H17.6839C17.6839 33.479 17.6838 33.479 17.6838 33.479C17.4826 33.479 17.2941 33.5569 17.1529 33.6982C17.0116 33.8396 16.9339 34.0283 16.9341 34.2294V34.2295L16.9351 35.3406C16.9355 35.7536 17.2719 36.0896 17.6848 36.0896L22.2051 36.0898C22.4063 36.0898 22.5948 36.012 22.7361 35.8706C22.8774 35.7292 22.955 35.5405 22.9548 35.3393L22.9538 34.2282C22.9533 33.8152 22.617 33.4792 22.204 33.4792ZM17.7611 32.5993L15.9293 31.3403C15.4751 31.0282 15.2384 30.3016 15.0481 29.7178C15.0333 29.6723 15.0187 29.6275 15.0043 29.5839L13.6609 25.5063C13.521 25.0817 13.7846 24.5738 14.0985 24.4559C14.4612 24.3195 14.878 24.7109 15.2135 25.5028L16.271 27.999C16.1863 28.0668 16.1094 28.1471 16.0431 28.2394C15.6506 28.7858 15.7759 29.5496 16.3222 29.942L18.4849 31.4956C18.6248 31.596 18.8195 31.5641 18.92 31.4242C19.0204 31.2844 18.9885 31.0896 18.8486 30.9891L16.686 29.4356C16.4188 29.2437 16.3576 28.8702 16.5495 28.6031C16.7414 28.3359 17.1149 28.2746 17.382 28.4666L19.0094 29.6356C19.0395 29.6571 19.0731 29.6732 19.1088 29.6829C20.4968 30.0639 20.6824 30.6079 20.9407 31.7043C21.0799 32.2953 21.2252 32.8835 21.3741 33.4791L18.3853 33.4789C18.2866 33.1123 18.077 32.8164 17.7611 32.5993ZM22.295 35.4299C22.2784 35.4465 22.2493 35.4663 22.205 35.4663L17.6849 35.466C17.6153 35.466 17.5587 35.4094 17.5587 35.3399L17.5576 34.2287C17.5576 34.1845 17.5773 34.1554 17.5939 34.1387C17.6105 34.1221 17.6396 34.1024 17.6839 34.1024L21.7719 34.1026C21.7723 34.1026 21.7728 34.1027 21.7732 34.1027C21.7738 34.1027 21.7744 34.1026 21.7751 34.1026H22.204C22.2736 34.1026 22.3302 34.1592 22.3303 34.2288L22.3313 35.3399C22.3314 35.3842 22.3116 35.4133 22.295 35.4299ZM34.1199 23.8722C33.8526 23.7718 32.9252 23.5751 32.2115 25.2596L31.1578 27.747C30.8508 27.698 30.5251 27.765 30.2533 27.9603L28.6708 29.097C27.0338 29.5613 26.7391 30.3405 26.4516 31.5614C26.3005 32.2029 26.1432 32.8366 25.9823 33.4791H25.7951C25.3821 33.4791 25.0458 33.8152 25.0454 34.2282L25.0443 35.3393C25.0441 35.5405 25.1219 35.7292 25.2631 35.8706C25.4044 36.012 25.5929 36.0898 25.7943 36.0898L30.3142 36.0895C30.7272 36.0895 31.0635 35.7535 31.0639 35.3406L31.0649 34.2294C31.0652 34.0282 30.9875 33.8396 30.8462 33.6982C30.7049 33.5568 30.5164 33.4789 30.3153 33.4789C30.3153 33.4789 30.3152 33.4789 30.3152 33.4789H30.2747C30.3431 33.3321 30.4459 33.2129 30.5911 33.1131L32.4229 31.8542C33.0513 31.4223 33.3244 30.5841 33.5438 29.9106C33.5584 29.8658 33.5727 29.8218 33.5869 29.779L34.9303 25.7013C35.1642 24.9914 34.778 24.1196 34.1199 23.8722ZM30.3153 34.1024C30.3595 34.1024 30.3886 34.1222 30.4052 34.1388C30.4218 34.1554 30.4415 34.1845 30.4415 34.2287L30.4405 35.34C30.4404 35.4095 30.3838 35.466 30.3142 35.466L25.7941 35.4664C25.7498 35.4664 25.7208 35.4465 25.7041 35.4299C25.6874 35.4133 25.6677 35.3842 25.6678 35.34L25.6688 34.2288C25.6689 34.1592 25.7255 34.1027 25.795 34.1027H26.224C26.2246 34.1027 26.2252 34.1028 26.2258 34.1028C26.2263 34.1028 26.2267 34.1027 26.2272 34.1027L30.3153 34.1024ZM34.3382 25.5063L32.9947 29.5839C32.9804 29.6275 32.9659 29.672 32.9511 29.7175C32.7609 30.3014 32.5241 31.0282 32.0698 31.3404L30.238 32.5993C29.922 32.8165 29.7124 33.1124 29.6138 33.479L26.625 33.4791C26.7733 32.886 26.9184 32.2991 27.0584 31.7044C27.3167 30.608 27.5024 30.064 28.8903 29.683C28.926 29.6732 28.9597 29.6572 28.9897 29.6356L30.617 28.4667C30.8843 28.2748 31.2577 28.3361 31.4496 28.6032C31.542 28.7318 31.5785 28.8896 31.5527 29.0476C31.5268 29.2055 31.4417 29.3434 31.3131 29.4357L29.1504 30.9893C29.0106 31.0897 28.9787 31.2845 29.0791 31.4244C29.1796 31.5642 29.3743 31.5961 29.5142 31.4957L31.6768 29.9422C31.9407 29.7526 32.1151 29.4708 32.1679 29.1485C32.2207 28.8262 32.1455 28.5034 31.9559 28.2395C31.8896 28.1472 31.8127 28.0669 31.728 27.9991L32.7855 25.5029C33.121 24.7111 33.5377 24.3194 33.9005 24.456C34.2145 24.5738 34.478 25.0817 34.3382 25.5063ZM28.1357 26.1795C29.5429 24.7246 30.3178 23.0433 30.3178 21.4452V16.2021C30.3178 16.0509 30.2092 15.9214 30.0603 15.8951C28.6523 15.6465 27.2575 15.0574 25.915 14.1438C25.8633 14.1087 25.8022 14.0898 25.7396 14.0898H22.2595C22.197 14.0898 22.1359 14.1086 22.0841 14.1439C20.7415 15.0574 19.3469 15.6466 17.9388 15.8951C17.7898 15.9214 17.6813 16.0509 17.6813 16.2022V21.4452C17.6813 23.0432 18.4562 24.7245 19.8633 26.1795C21.0138 27.3692 22.5254 28.3362 23.9069 28.7663C23.9371 28.7757 23.9683 28.7804 23.9995 28.7804C24.0308 28.7804 24.062 28.7757 24.0922 28.7663C25.4737 28.3361 26.9853 27.3691 28.1357 26.1795ZM23.9995 28.1413C22.7385 27.7269 21.3668 26.8372 20.3115 25.7461C19.0174 24.408 18.3048 22.8806 18.3048 21.4452V16.4601C19.6841 16.1782 21.0448 15.5915 22.3549 14.7133H25.6442C26.9543 15.5915 28.3151 16.1782 29.6943 16.4601V21.4452C29.6943 22.8806 28.9816 24.408 27.6875 25.746C26.6324 26.8372 25.2607 27.7269 23.9995 28.1413ZM28.843 16.8951C27.7177 16.5807 26.6042 16.073 25.5334 15.3862C25.4831 15.354 25.4247 15.3368 25.3651 15.3368H22.6341C22.5744 15.3368 22.5161 15.3539 22.4658 15.3862C21.3949 16.0731 20.2814 16.5807 19.1562 16.8951C19.0215 16.9327 18.9283 17.0555 18.9283 17.1954V21.4452C18.9283 22.9794 19.8247 24.2886 20.5767 25.1167C21.5016 26.1354 22.7081 26.9818 23.8869 27.4389C23.9232 27.453 23.9614 27.4601 23.9996 27.4601C24.0378 27.4601 24.0761 27.453 24.1123 27.4389C25.2911 26.9818 26.4977 26.1354 27.4225 25.1168C28.1746 24.2886 29.0709 22.9793 29.0709 21.4452V17.1954C29.0709 17.0555 28.9777 16.9327 28.843 16.8951ZM28.4474 21.4452C28.4474 22.4869 27.9195 23.6419 26.9609 24.6977C26.1412 25.6005 25.0421 26.3841 23.9996 26.8127C22.957 26.3841 21.858 25.6005 21.0382 24.6977C20.0797 23.6419 19.5518 22.4869 19.5518 21.4452V17.4294C20.6317 17.1035 21.6977 16.6101 22.725 15.9603H25.2742C26.3014 16.61 27.3674 17.1035 28.4474 17.4294V21.4452ZM22.3309 20.5504C22.061 20.1112 21.4839 19.9735 21.0448 20.2434C20.832 20.3742 20.6829 20.58 20.6249 20.8229C20.567 21.0658 20.6071 21.3168 20.7378 21.5295L21.8238 23.2968C21.9581 23.5153 22.1698 23.6628 22.4199 23.7121C22.4807 23.7241 22.5425 23.73 22.6044 23.73C22.8185 23.73 23.0341 23.6594 23.2164 23.5264L27.0162 20.7531C27.2175 20.6065 27.3497 20.3903 27.3884 20.1443C27.4271 19.8982 27.3676 19.6518 27.2211 19.4505C26.9184 19.0349 26.3342 18.943 25.9182 19.2458L22.8882 21.4573L22.3309 20.5504ZM26.2855 19.7496C26.4233 19.6493 26.6168 19.6798 26.7171 19.8175C26.7657 19.8842 26.7853 19.9658 26.7725 20.0473C26.7597 20.1288 26.7159 20.2004 26.6489 20.2492L22.8488 23.0228C22.7539 23.092 22.6415 23.1202 22.5405 23.1004C22.4607 23.0847 22.3984 23.0409 22.3549 22.9704L21.2691 21.2031L21.269 21.2031C21.2254 21.1322 21.2121 21.0486 21.2314 20.9677C21.2507 20.8868 21.3004 20.8182 21.3713 20.7746C21.422 20.7435 21.4783 20.7286 21.5339 20.7286C21.6386 20.7286 21.7409 20.7813 21.7997 20.8768L22.5337 22.0714C22.5792 22.1455 22.6536 22.1972 22.739 22.214C22.8242 22.2308 22.9128 22.2113 22.983 22.16L26.2855 19.7496Z" fill="#193B2C"/>
<path d="M22.6606 1.96123C23.5182 1.606 24.4818 1.606 25.3394 1.96122L39.2485 7.72256C40.1061 8.07779 40.7874 8.75915 41.1427 9.61675L46.904 23.5258C47.2592 24.3834 47.2592 25.347 46.904 26.2046L41.1427 40.1137C40.7874 40.9713 40.1061 41.6527 39.2485 42.0079L25.3394 47.7692C24.4818 48.1245 23.5182 48.1245 22.6606 47.7692L8.75152 42.0079C7.89392 41.6527 7.21256 40.9713 6.85733 40.1137L1.09599 26.2046C0.740763 25.347 0.740762 24.3834 1.09599 23.5258L6.85733 9.61675C7.21255 8.75915 7.89392 8.07779 8.75151 7.72256L22.6606 1.96123Z" stroke="#193B2C"/>
</svg>
