<svg width="48" height="49" viewBox="0 0 48 49" fill="none" xmlns="http://www.w3.org/2000/svg">
<path d="M22.6606 1.96123C23.5182 1.606 24.4818 1.606 25.3394 1.96122L39.2485 7.72256C40.1061 8.07779 40.7874 8.75915 41.1427 9.61675L46.904 23.5258C47.2592 24.3834 47.2592 25.347 46.904 26.2046L41.1427 40.1137C40.7874 40.9713 40.1061 41.6527 39.2485 42.0079L25.3394 47.7692C24.4818 48.1245 23.5182 48.1245 22.6606 47.7692L8.75152 42.0079C7.89392 41.6527 7.21256 40.9713 6.85733 40.1137L1.09599 26.2046C0.740763 25.347 0.740762 24.3834 1.09599 23.5258L6.85733 9.61675C7.21255 8.75915 7.89392 8.07779 8.75151 7.72256L22.6606 1.96123Z" stroke="#193B2C"/>
<path d="M33.9141 29.7058L31.9415 27.7331C32.362 27.1346 32.6455 26.4826 32.8855 25.9288C33.0315 25.5919 33.1695 25.2736 33.313 25.025L33.4196 24.8404L33.4999 24.9207C33.5571 24.9779 33.6321 25.0065 33.707 25.0065C33.782 25.0065 33.857 24.9779 33.9142 24.9207C34.0286 24.8063 34.0286 24.6208 33.9142 24.5064L33.7229 24.3151L33.844 24.1054C34.0368 23.7716 34.0146 23.4989 33.962 23.3289C33.8941 23.1092 33.7368 22.923 33.5072 22.7904C33.3525 22.7011 33.1933 22.6524 33.0373 22.6457C33.0413 22.5359 33.0241 22.4422 33.0012 22.3681C32.9333 22.1484 32.776 21.9622 32.5463 21.8296C32.3886 21.7385 32.2297 21.6905 32.0765 21.6836C32.0803 21.5744 32.0632 21.4811 32.0404 21.4072C31.9725 21.1875 31.8152 21.0013 31.5855 20.8687C31.4279 20.7777 31.2691 20.7297 31.1161 20.7228C31.1286 20.3957 30.9588 20.1008 30.6247 19.9079C30.395 19.7753 30.1552 19.7321 29.9309 19.7832C29.7574 19.8227 29.5101 19.9398 29.3174 20.2737C29.3149 20.278 29.3117 20.2834 29.3079 20.2897L28.4101 19.3921C28.3181 19.1614 27.9688 18.3658 27.2841 17.6811C26.5463 16.9433 25.5995 16.533 24.8387 16.2032C24.5017 16.0572 24.1835 15.9192 23.9349 15.7757L23.7512 15.6697L23.8308 15.59C23.9452 15.4756 23.9452 15.2901 23.8308 15.1757C23.7164 15.0613 23.5309 15.0613 23.4165 15.1757L23.2258 15.3664L23.0153 15.2448C22.6814 15.0521 22.4088 15.0742 22.2388 15.1268C22.0191 15.1947 21.8329 15.352 21.7003 15.5817C21.6092 15.7393 21.5612 15.8983 21.5543 16.0515C21.445 16.0478 21.3518 16.0648 21.2779 16.0876C21.0582 16.1555 20.872 16.3128 20.7394 16.5425C20.6484 16.7 20.6005 16.859 20.5935 17.012C20.2662 16.9994 19.9715 17.1692 19.7786 17.5033C19.6894 17.6579 19.6406 17.817 19.6339 17.9729C19.3062 17.9599 19.011 18.1296 18.8178 18.4642C18.6851 18.6939 18.642 18.9337 18.6931 19.158C18.7326 19.3314 18.8497 19.5787 19.1835 19.7714C19.1882 19.7741 19.194 19.7776 19.201 19.7818L18.3033 20.6795C18.0727 20.7715 17.2771 21.1208 16.5924 21.8056C16.535 21.863 16.479 21.9224 16.424 21.9837L14.5001 20.0597C14.3857 19.9453 14.2002 19.9453 14.0858 20.0597C13.9714 20.1742 13.9714 20.3597 14.0858 20.474L16.0576 22.4458C15.8727 22.7088 15.6984 23.0053 15.5276 23.3463C15.4551 23.491 15.5137 23.667 15.6584 23.7394C15.7005 23.7605 15.7453 23.7704 15.7894 23.7704C15.8968 23.7704 16.0002 23.7111 16.0516 23.6086C16.3482 23.0162 16.6517 22.5749 17.0067 22.2199C17.704 21.5227 18.5571 21.2094 18.5653 21.2065C18.606 21.1919 18.6431 21.1685 18.6737 21.1378L19.7031 20.1082C19.9999 20.3049 20.4575 20.6112 21.1633 21.0874C21.3919 21.2415 21.5989 21.4199 21.7819 21.619L20.9879 22.413C20.8849 22.516 20.8732 22.6791 20.9605 22.7957C22.8696 25.3466 22.8176 25.716 22.3655 26.499L21.9459 27.2258C21.822 27.3155 21.6932 27.4099 21.5588 27.5096L20.9969 26.9477C21.2062 26.8128 21.4306 26.6994 21.6682 26.6106C21.8198 26.554 21.8968 26.3852 21.8401 26.2337C21.7835 26.0821 21.6147 26.0052 21.4631 26.0618C20.6642 26.3603 19.9899 26.8917 19.513 27.5985C18.7096 28.7891 18.2596 29.4669 18.1752 29.613C18.1053 29.734 18.0259 29.8054 17.9391 29.8251C17.841 29.8475 17.7377 29.8044 17.6683 29.7643C17.599 29.7243 17.51 29.6563 17.4803 29.5602C17.454 29.4752 17.4761 29.3707 17.546 29.2497L18.4446 27.6932C18.5255 27.5531 18.4775 27.3739 18.3374 27.293C18.1972 27.2121 18.0181 27.2601 17.9372 27.4002L17.2135 28.6536C17.0808 28.8826 16.9246 28.9289 16.7075 28.8035C16.6382 28.7634 16.5492 28.6955 16.5195 28.5994C16.4932 28.5143 16.5153 28.4099 16.5851 28.2889L17.534 26.6454C17.6149 26.5053 17.5669 26.3261 17.4268 26.2452C17.2866 26.1643 17.1075 26.2123 17.0266 26.3524L16.2536 27.6913C16.1207 27.9216 15.9643 27.9683 15.7467 27.8427C15.5291 27.717 15.4914 27.5583 15.6243 27.3281L16.5885 25.658C16.6694 25.5179 16.6214 25.3387 16.4813 25.2578C16.3412 25.1768 16.162 25.2249 16.0811 25.365L15.2927 26.7305C15.1598 26.9608 15.0034 27.0075 14.7858 26.8818C14.5683 26.7562 14.5305 26.5975 14.6635 26.3672L15.1944 25.4476C15.3263 25.2192 15.4486 24.95 15.5611 24.6931C15.626 24.5449 15.5585 24.3722 15.4103 24.3072C15.262 24.2423 15.0893 24.3098 15.0244 24.4581C14.9186 24.6995 14.8046 24.951 14.687 25.1547L14.5804 25.3393L14.5001 25.259C14.3857 25.1446 14.2002 25.1446 14.0858 25.259C13.9714 25.3734 13.9714 25.5589 14.0858 25.6733L14.2771 25.8646L14.156 26.0742C13.8613 26.5847 13.9935 27.1009 14.4929 27.3893C14.6505 27.4802 14.8093 27.5282 14.9624 27.5352C14.9498 27.8622 15.1196 28.1572 15.4537 28.3501C15.6114 28.4411 15.7704 28.4891 15.9235 28.4961C15.9198 28.6053 15.9369 28.6986 15.9597 28.7724C16.0276 28.9921 16.1849 29.1783 16.4146 29.3109C16.5723 29.402 16.7312 29.45 16.8844 29.4569C16.8806 29.5661 16.8977 29.6594 16.9205 29.7333C16.9884 29.953 17.1457 30.1392 17.3754 30.2718C17.5424 30.3682 17.7148 30.4174 17.8826 30.4174C17.9456 30.4174 18.008 30.4104 18.0692 30.3965C18.2426 30.357 18.4899 30.2399 18.6826 29.906C18.6851 29.9016 18.6883 29.8963 18.6922 29.8899L19.5899 30.7877C19.6819 31.0183 20.0312 31.8139 20.716 32.4986C20.7739 32.5566 20.8335 32.6118 20.8938 32.6657L18.9698 34.5897C18.8554 34.7041 18.8554 34.8896 18.9698 35.004C19.027 35.0612 19.102 35.0898 19.177 35.0898C19.2519 35.0898 19.3269 35.0612 19.3841 35.004L21.3562 33.0319C21.9549 33.4528 22.6073 33.7364 23.1613 33.9765C23.4983 34.1225 23.8166 34.2605 24.0652 34.404L24.2489 34.51L24.1692 34.5897C24.0548 34.7041 24.0548 34.8896 24.1692 35.004C24.2264 35.0612 24.3014 35.0898 24.3764 35.0898C24.4513 35.0898 24.5263 35.0612 24.5835 35.004L24.7742 34.8133L24.9847 34.9349C25.1871 35.0517 25.367 35.0896 25.5152 35.0896C25.6115 35.0896 25.6943 35.0736 25.7613 35.0529C25.981 34.985 26.1672 34.8277 26.2998 34.598C26.389 34.4434 26.4377 34.2842 26.4445 34.1282C26.5546 34.1324 26.648 34.115 26.7221 34.0921C26.9418 34.0242 27.128 33.8669 27.2606 33.6372C27.3517 33.4796 27.3997 33.3205 27.4066 33.1674C27.5157 33.1709 27.6091 33.1541 27.683 33.1313C27.9027 33.0634 28.0889 32.9061 28.2215 32.6764C28.3125 32.5189 28.3604 32.3599 28.3674 32.207C28.6949 32.2197 28.9894 32.0497 29.1823 31.7156C29.3149 31.4859 29.3581 31.246 29.307 31.0218C29.2675 30.8483 29.1504 30.601 28.8165 30.4083C28.7409 30.3647 28.3832 30.1357 26.8368 29.0923C26.6082 28.9381 26.4012 28.7597 26.2181 28.5606L27.0122 27.7666C27.1152 27.6636 27.1268 27.5006 27.0396 27.3839C26.209 26.2742 25.7795 25.6213 25.5568 25.1305C25.49 24.9832 25.3163 24.9179 25.169 24.9848C25.0216 25.0516 24.9563 25.2252 25.0232 25.3726C25.1146 25.574 25.2356 25.7973 25.3973 26.0591C24.7046 25.7436 24.1139 25.821 23.0313 26.4882C23.3476 25.7947 23.2705 25.2039 22.6025 24.1201C22.8573 24.2362 23.0983 24.2995 23.3551 24.2995C23.7963 24.2995 24.2841 24.1135 24.9685 23.6917C24.9089 23.8217 24.8662 23.941 24.8372 24.0588C24.7987 24.216 24.8948 24.3746 25.0519 24.4132C25.0754 24.419 25.0989 24.4217 25.122 24.4217C25.2538 24.4217 25.3735 24.3322 25.4063 24.1985C25.4425 24.051 25.5129 23.8913 25.6345 23.6806L26.0542 22.9538C26.1781 22.8641 26.3068 22.7697 26.4413 22.67L27.0032 23.2319C26.7939 23.3668 26.5695 23.4802 26.3318 23.569C26.1803 23.6256 26.1033 23.7944 26.1599 23.946C26.2166 24.0975 26.3854 24.1745 26.5369 24.1178C27.3359 23.8194 28.0102 23.2879 28.4871 22.5812C29.2904 21.3905 29.7405 20.7128 29.8249 20.5667C29.8948 20.4457 29.9742 20.3743 30.0609 20.3546C30.1591 20.3322 30.2624 20.3753 30.3317 20.4153C30.5493 20.541 30.587 20.6997 30.4541 20.9299L30.2815 21.229C30.2804 21.2308 29.5555 22.4865 29.5555 22.4865C29.4746 22.6266 29.5226 22.8058 29.6627 22.8867C29.8027 22.9675 29.982 22.9195 30.0629 22.7794L30.7883 21.523C30.9207 21.2966 31.0764 21.2513 31.2925 21.3762C31.3619 21.4162 31.4509 21.4842 31.4806 21.5803C31.5069 21.6653 31.4848 21.7698 31.4149 21.8908L30.4661 23.5342C30.3852 23.6744 30.4332 23.8535 30.5733 23.9344C30.7133 24.0153 30.8926 23.9673 30.9735 23.8272L31.7465 22.4883C31.8795 22.2581 32.0358 22.2113 32.2534 22.337C32.3227 22.377 32.4117 22.445 32.4414 22.5411C32.4677 22.6261 32.4456 22.7306 32.3757 22.8516L31.4115 24.5217C31.3306 24.6618 31.3786 24.841 31.5188 24.9219C31.6588 25.0027 31.8381 24.9547 31.919 24.8146L32.7073 23.4491C32.7772 23.3281 32.8566 23.2567 32.9434 23.237C33.0415 23.2147 33.1448 23.2577 33.2142 23.2978C33.2836 23.3379 33.3725 23.4058 33.4023 23.5019C33.4286 23.5869 33.4064 23.6914 33.3366 23.8124L32.8057 24.732C32.6454 25.0097 32.5009 25.343 32.348 25.6958C32.0218 26.4482 31.6522 27.301 30.9934 27.9599C30.2962 28.657 29.443 28.9703 29.4349 28.9733C29.3941 28.9879 29.3571 29.0113 29.3265 29.0419L29.0087 29.3597C28.8943 29.4741 28.8943 29.6596 29.0087 29.774C29.0659 29.8311 29.1409 29.8598 29.2159 29.8598C29.2908 29.8598 29.3658 29.8312 29.423 29.774L29.6968 29.5002C29.9274 29.4082 30.723 29.0589 31.4077 28.3741C31.4659 28.3159 31.5213 28.2561 31.5756 28.1956L33.5 30.12C33.5572 30.1772 33.6322 30.2058 33.7072 30.2058C33.7821 30.2058 33.8571 30.1772 33.9143 30.12C34.0286 30.0056 34.0286 29.8201 33.9141 29.7058ZM25.4095 26.7254L26.1352 27.1444C26.2238 27.267 26.3181 27.3957 26.4187 27.5314L25.8573 28.0928C25.7228 27.8839 25.6097 27.6599 25.5211 27.4228C25.4645 27.2712 25.2957 27.1943 25.1442 27.2509C24.9926 27.3075 24.9156 27.4763 24.9723 27.6279C25.2708 28.4268 25.8022 29.1011 26.509 29.5781C27.6996 30.3814 28.3774 30.8315 28.5235 30.9158C28.6445 30.9857 28.7158 31.0651 28.7356 31.1519C28.7579 31.25 28.7149 31.3533 28.6748 31.4227C28.5492 31.6403 28.3904 31.6779 28.1602 31.545L26.6037 30.6464C26.4636 30.5654 26.2844 30.6135 26.2035 30.7536C26.1226 30.8938 26.1706 31.0729 26.3107 31.1538L27.5673 31.8793C27.7936 32.0117 27.8388 32.1674 27.714 32.3835C27.6739 32.4529 27.606 32.5418 27.5099 32.5715C27.4249 32.5978 27.3203 32.5757 27.1994 32.5059L25.5559 31.557C25.4158 31.476 25.2366 31.5241 25.1557 31.6642C25.0748 31.8043 25.1228 31.9835 25.2629 32.0644L26.6018 32.8374C26.8321 32.9704 26.8788 33.1267 26.7532 33.3443C26.7131 33.4137 26.6452 33.5026 26.5491 33.5323C26.464 33.5586 26.3595 33.5365 26.2386 33.4667L24.5685 32.5025C24.4283 32.4215 24.2492 32.4696 24.1683 32.6097C24.0874 32.7498 24.1354 32.929 24.2755 33.0099L25.641 33.7983C25.762 33.8682 25.8334 33.9476 25.8531 34.0344C25.8755 34.1325 25.8324 34.2357 25.7924 34.3052C25.7523 34.3746 25.6844 34.4635 25.5883 34.4932C25.5031 34.5195 25.3987 34.4974 25.2777 34.4275L24.3581 33.8966C24.0804 33.7363 23.7472 33.5918 23.3944 33.4389C22.6419 33.1128 21.7891 32.7432 21.1303 32.0843C20.4331 31.3872 20.1198 30.534 20.1169 30.5258C20.1023 30.485 20.0788 30.448 20.0482 30.4174L19.0187 29.3879C19.2154 29.0911 19.5218 28.6332 19.9987 27.9263C20.1526 27.6983 20.3306 27.4916 20.5292 27.3088L21.3235 28.1031C21.3803 28.1599 21.4553 28.189 21.5308 28.189C21.5922 28.189 21.6539 28.1697 21.7062 28.1305C24.257 26.2214 24.6264 26.2733 25.4095 26.7254ZM28.0013 22.2534C27.8474 22.4815 27.6695 22.6882 27.4709 22.871L26.6765 22.0766C26.5735 21.9735 26.4104 21.9619 26.2938 22.0492C23.7429 23.9582 23.3735 23.9063 22.5905 23.4542L21.8651 23.0354C21.7754 22.9115 21.681 22.7827 21.5813 22.6482L22.1426 22.0869C22.2771 22.2958 22.3902 22.5197 22.4788 22.7569C22.5228 22.8746 22.6345 22.9474 22.7533 22.9474C22.7874 22.9474 22.822 22.9414 22.8558 22.9288C23.0074 22.8721 23.0844 22.7033 23.0277 22.5518C22.7292 21.7528 22.1978 21.0785 21.491 20.6016C20.3003 19.7983 19.6226 19.3482 19.4765 19.2638C19.3555 19.1939 19.2841 19.1145 19.2644 19.0278C19.242 18.9297 19.2851 18.8264 19.3252 18.757C19.4508 18.5394 19.6096 18.5017 19.8398 18.6346L21.3963 19.5333C21.5364 19.6142 21.7156 19.5662 21.7965 19.426C21.8774 19.2859 21.8294 19.1067 21.6893 19.0258L20.4344 18.3014C20.3152 18.2319 20.2448 18.1531 20.2252 18.067C20.2029 17.9689 20.246 17.8656 20.286 17.7962C20.4116 17.5786 20.5704 17.5409 20.8006 17.6738L22.4441 18.6227C22.5841 18.7036 22.7634 18.6556 22.8443 18.5155C22.9252 18.3753 22.8772 18.1962 22.737 18.1153L21.398 17.3421C21.1679 17.2092 21.1212 17.0529 21.2468 16.8354C21.2869 16.766 21.3548 16.6771 21.4509 16.6473C21.536 16.621 21.6404 16.6432 21.7614 16.713L23.4315 17.6772C23.5716 17.7582 23.7508 17.7101 23.8317 17.57C23.9126 17.4299 23.8646 17.2507 23.7245 17.1698L22.359 16.3814C22.1287 16.2485 22.082 16.0921 22.2076 15.8746C22.2477 15.8052 22.3156 15.7162 22.4117 15.6865C22.4967 15.6602 22.6012 15.6823 22.7222 15.7522L23.6419 16.2831C23.9195 16.4434 24.2528 16.5879 24.6056 16.7408C25.3581 17.0669 26.2109 17.4365 26.8697 18.0954C27.5669 18.7926 27.8801 19.6458 27.8831 19.6539C27.8977 19.6947 27.9211 19.7317 27.9517 19.7623L28.9813 20.7919C28.7847 21.0886 28.4783 21.5466 28.0013 22.2534Z" fill="#193B2C"/>
<path d="M27.4543 17.0445C27.5293 17.0445 27.6043 17.0159 27.6615 16.9587L29.0302 15.59C29.1446 15.4755 29.1446 15.29 29.0302 15.1757C28.9158 15.0612 28.7303 15.0612 28.6159 15.1757L27.2472 16.5444C27.1327 16.6588 27.1327 16.8443 27.2472 16.9587C27.3043 17.0159 27.3793 17.0445 27.4543 17.0445Z" fill="#193B2C"/>
</svg>
